<svg width="24" height="24" viewBox="0 0 24 24" fill="none" xmlns="http://www.w3.org/2000/svg">
<g clip-path="url(#clip0_70_4)">
<path d="M12.763 22.8533C12.665 22.9083 12.3961 23 12 23C11.6039 23 11.3329 22.9083 11.237 22.8533L2.76298 18.0724C2.41276 17.8748 2 17.1741 2 16.7809V7.21907C2 6.82389 2.41276 6.12519 2.76298 5.92759L11.237 1.14667C11.335 1.09167 11.6039 1 12 1C12.3961 1 12.6671 1.09167 12.763 1.14667L21.237 5.92759C21.5872 6.12519 22 6.82593 22 7.21907V16.4652L14.0846 12V11.118C14.0846 10.9367 13.9846 10.7676 13.8241 10.678L12.2606 9.79593C12.1793 9.75111 12.0896 9.7287 12 9.7287C11.9104 9.7287 11.8207 9.75111 11.7394 9.79593L10.1759 10.678C10.0154 10.7696 9.91536 10.9367 9.91536 11.118V12.882C9.91536 13.0633 10.0154 13.2324 10.1759 13.322L11.7394 14.2041C11.8207 14.2489 11.9104 14.2713 12 14.2713C12.0896 14.2713 12.1793 14.2489 12.2606 14.2041L13.0423 13.762L20.9577 18.2272L12.763 22.8493V22.8533Z" fill="white"/>
</g>
<defs>
<clipPath id="clip0_70_4">
<rect width="20" height="22" fill="white" transform="translate(2 1)"/>
</clipPath>
</defs>
</svg>
