<svg width="12" height="12" viewBox="0 0 12 12" fill="none" xmlns="http://www.w3.org/2000/svg">
<circle cx="2" cy="10" r="2" fill="#FF2850"/>
<path fill-rule="evenodd" clip-rule="evenodd" d="M6.00001 11.1285C6.18046 11.1285 6.30297 11.0858 6.34761 11.0601L10.081 8.90331L6.47487 6.82151L6.11873 7.0276C6.08169 7.0485 6.04085 7.05894 6.00001 7.05894C5.95917 7.05894 5.91833 7.0485 5.8813 7.0276L5.169 6.61637C5.09587 6.57458 5.05029 6.49576 5.05029 6.41123V5.58877C5.05029 5.50425 5.09587 5.42637 5.169 5.38363L5.8813 4.9724C5.91833 4.95151 5.95917 4.94106 6.00001 4.94106C6.04085 4.94106 6.08169 4.95151 6.11873 4.9724L6.83102 5.38363C6.90415 5.42542 6.94974 5.50425 6.94974 5.58877V6L10.5558 8.0818V3.771C10.5558 3.5877 10.3678 3.261 10.2082 3.16887L6.34761 0.939871C6.30392 0.914228 6.18046 0.87149 6.00001 0.87149C5.81956 0.87149 5.69705 0.914228 5.65241 0.939871L1.79178 3.16887C1.63223 3.261 1.44418 3.58675 1.44418 3.771V7.05139C1.6243 7.01765 1.81009 7 2 7C3.65685 7 5 8.34315 5 10C5 10.2209 4.97613 10.4362 4.93082 10.6435L5.65241 11.0601C5.6961 11.0858 5.81956 11.1285 6.00001 11.1285Z" fill="white"/>
</svg>
